<svg width="20" height="20" viewBox="0 0 20 20" fill="none" xmlns="http://www.w3.org/2000/svg">
<mask id="mask0_1835_2140" style="mask-type:alpha" maskUnits="userSpaceOnUse" x="0" y="0" width="20" height="20">
<rect width="20" height="20" fill="#D9D9D9"/>
</mask>
<g mask="url(#mask0_1835_2140)">
<path d="M4.77083 10.4066L10.0625 15.6982C10.2708 15.9066 10.3715 16.1496 10.3646 16.4274C10.3576 16.7052 10.25 16.9482 10.0417 17.1566C9.83333 17.3649 9.59028 17.4691 9.3125 17.4691C9.03472 17.4691 8.79167 17.3649 8.58333 17.1566L3 11.5941C2.83333 11.4274 2.70833 11.2399 2.625 11.0316C2.54167 10.8232 2.5 10.6149 2.5 10.4066C2.5 10.1982 2.54167 9.9899 2.625 9.78157C2.70833 9.57323 2.83333 9.38573 3 9.21907L8.58333 3.63573C8.79167 3.4274 9.03819 3.3267 9.32292 3.33365C9.60764 3.34059 9.85417 3.44823 10.0625 3.65657C10.2708 3.8649 10.375 4.10795 10.375 4.38573C10.375 4.66351 10.2708 4.90657 10.0625 5.1149L4.77083 10.4066Z" fill="#1C1B1F"/>
</g>
</svg>
